<mxfile host="app.diagrams.net" modified="2023-08-02T01:37:20.291Z" agent="Mozilla/5.0 (Windows NT 10.0; Win64; x64) AppleWebKit/537.36 (KHTML, like Gecko) Chrome/114.0.0.0 Safari/537.36 OPR/100.0.0.0 (Edition std-1)" etag="xN4BB7VoLxyQkn9HMgp2" version="21.6.6" type="device">
  <diagram name="PÃ¡gina-1" id="ocSZPIvRck8DVt_tokzN">
    <mxGraphModel dx="1393" dy="1658" grid="1" gridSize="10" guides="1" tooltips="1" connect="1" arrows="1" fold="1" page="1" pageScale="1" pageWidth="1600" pageHeight="900" math="0" shadow="0">
      <root>
        <mxCell id="0" />
        <mxCell id="1" parent="0" />
        <mxCell id="YNYwelC9UPpxZu0wi-aZ-71" style="edgeStyle=orthogonalEdgeStyle;rounded=0;orthogonalLoop=1;jettySize=auto;html=1;entryX=0.5;entryY=0;entryDx=0;entryDy=0;" parent="1" source="YNYwelC9UPpxZu0wi-aZ-39" edge="1" target="thLjIG574STWoP4mwLSq-6">
          <mxGeometry relative="1" as="geometry">
            <mxPoint x="404" y="-580" as="targetPoint" />
          </mxGeometry>
        </mxCell>
        <mxCell id="YNYwelC9UPpxZu0wi-aZ-78" style="edgeStyle=orthogonalEdgeStyle;rounded=0;orthogonalLoop=1;jettySize=auto;html=1;" parent="1" source="YNYwelC9UPpxZu0wi-aZ-39" target="YNYwelC9UPpxZu0wi-aZ-74" edge="1">
          <mxGeometry relative="1" as="geometry" />
        </mxCell>
        <mxCell id="YNYwelC9UPpxZu0wi-aZ-84" style="edgeStyle=orthogonalEdgeStyle;rounded=0;orthogonalLoop=1;jettySize=auto;html=1;" parent="1" source="YNYwelC9UPpxZu0wi-aZ-39" target="YNYwelC9UPpxZu0wi-aZ-80" edge="1">
          <mxGeometry relative="1" as="geometry">
            <Array as="points">
              <mxPoint x="660" y="-680" />
            </Array>
          </mxGeometry>
        </mxCell>
        <mxCell id="YNYwelC9UPpxZu0wi-aZ-39" value="Sistema" style="swimlane;fontStyle=1;align=center;verticalAlign=top;childLayout=stackLayout;horizontal=1;startSize=26;horizontalStack=0;resizeParent=1;resizeParentMax=0;resizeLast=0;collapsible=1;marginBottom=0;whiteSpace=wrap;html=1;" parent="1" vertex="1">
          <mxGeometry x="309" y="-730" width="190" height="410" as="geometry" />
        </mxCell>
        <mxCell id="YNYwelC9UPpxZu0wi-aZ-40" value="- animales: HashSet&amp;lt;Animal&amp;gt;&lt;br&gt;- persona: HashSet&amp;lt;Persona&amp;gt;&lt;br&gt;- solicitudes: HashSet&amp;lt;Solicitud&amp;gt;" style="text;strokeColor=none;fillColor=none;align=left;verticalAlign=top;spacingLeft=4;spacingRight=4;overflow=hidden;rotatable=0;points=[[0,0.5],[1,0.5]];portConstraint=eastwest;whiteSpace=wrap;html=1;" parent="YNYwelC9UPpxZu0wi-aZ-39" vertex="1">
          <mxGeometry y="26" width="190" height="54" as="geometry" />
        </mxCell>
        <mxCell id="YNYwelC9UPpxZu0wi-aZ-41" value="" style="line;strokeWidth=1;fillColor=none;align=left;verticalAlign=middle;spacingTop=-1;spacingLeft=3;spacingRight=3;rotatable=0;labelPosition=right;points=[];portConstraint=eastwest;strokeColor=inherit;" parent="YNYwelC9UPpxZu0wi-aZ-39" vertex="1">
          <mxGeometry y="80" width="190" height="8" as="geometry" />
        </mxCell>
        <mxCell id="YNYwelC9UPpxZu0wi-aZ-42" value="+ buscarPersona(boolean, LocalDate, String,&amp;nbsp; String, String, String, String): Persona&lt;br style=&quot;border-color: var(--border-color);&quot;&gt;+ buscarAnimal(LocalDate ,String ,String ,String ,String ,String): Animal&lt;br style=&quot;border-color: var(--border-color);&quot;&gt;+ cargarDatos(): void&lt;br style=&quot;border-color: var(--border-color);&quot;&gt;+&amp;nbsp;animalesPorSolicitudDe&lt;br&gt;Adopcion(): Hashset&amp;lt;Animal&amp;gt;&lt;br style=&quot;border-color: var(--border-color);&quot;&gt;+&amp;nbsp;menorAnimalPorEspecie():&amp;nbsp;&lt;br&gt;HashMap&amp;lt;String, Animal&amp;gt;&lt;br style=&quot;border-color: var(--border-color);&quot;&gt;+ solicitudesNoValidas(): HashSet&amp;lt;Solicitud&amp;gt;&lt;br style=&quot;border-color: var(--border-color);&quot;&gt;+ corregirFechas(): void&lt;br style=&quot;border-color: var(--border-color);&quot;&gt;+ rompeRegla(): HashSet&amp;lt;Persona&amp;gt;&lt;br style=&quot;border-color: var(--border-color);&quot;&gt;+ personasExperimentadas(): HashSet&amp;lt;Persona&amp;gt;&lt;br style=&quot;border-color: var(--border-color);&quot;&gt;+ especiesSolicitadas(): HashSet&amp;lt;String&amp;gt;&lt;br style=&quot;border-color: var(--border-color);&quot;&gt;+ animalMasReciente(): Animal" style="text;strokeColor=none;fillColor=none;align=left;verticalAlign=top;spacingLeft=4;spacingRight=4;overflow=hidden;rotatable=0;points=[[0,0.5],[1,0.5]];portConstraint=eastwest;whiteSpace=wrap;html=1;" parent="YNYwelC9UPpxZu0wi-aZ-39" vertex="1">
          <mxGeometry y="88" width="190" height="322" as="geometry" />
        </mxCell>
        <mxCell id="YNYwelC9UPpxZu0wi-aZ-52" value="Vacuna" style="swimlane;fontStyle=1;align=center;verticalAlign=top;childLayout=stackLayout;horizontal=1;startSize=26;horizontalStack=0;resizeParent=1;resizeParentMax=0;resizeLast=0;collapsible=1;marginBottom=0;whiteSpace=wrap;html=1;" parent="1" vertex="1">
          <mxGeometry x="75" y="-415" width="160" height="68" as="geometry" />
        </mxCell>
        <mxCell id="YNYwelC9UPpxZu0wi-aZ-53" value="- fecha: LocalDate&lt;br&gt;- dosis: String" style="text;strokeColor=none;fillColor=none;align=left;verticalAlign=top;spacingLeft=4;spacingRight=4;overflow=hidden;rotatable=0;points=[[0,0.5],[1,0.5]];portConstraint=eastwest;whiteSpace=wrap;html=1;" parent="YNYwelC9UPpxZu0wi-aZ-52" vertex="1">
          <mxGeometry y="26" width="160" height="34" as="geometry" />
        </mxCell>
        <mxCell id="YNYwelC9UPpxZu0wi-aZ-54" value="" style="line;strokeWidth=1;fillColor=none;align=left;verticalAlign=middle;spacingTop=-1;spacingLeft=3;spacingRight=3;rotatable=0;labelPosition=right;points=[];portConstraint=eastwest;strokeColor=inherit;" parent="YNYwelC9UPpxZu0wi-aZ-52" vertex="1">
          <mxGeometry y="60" width="160" height="8" as="geometry" />
        </mxCell>
        <mxCell id="YNYwelC9UPpxZu0wi-aZ-79" style="edgeStyle=orthogonalEdgeStyle;rounded=0;orthogonalLoop=1;jettySize=auto;html=1;" parent="1" source="YNYwelC9UPpxZu0wi-aZ-74" target="YNYwelC9UPpxZu0wi-aZ-52" edge="1">
          <mxGeometry relative="1" as="geometry" />
        </mxCell>
        <mxCell id="YNYwelC9UPpxZu0wi-aZ-74" value="Animal" style="swimlane;fontStyle=1;align=center;verticalAlign=top;childLayout=stackLayout;horizontal=1;startSize=26;horizontalStack=0;resizeParent=1;resizeParentMax=0;resizeLast=0;collapsible=1;marginBottom=0;whiteSpace=wrap;html=1;" parent="1" vertex="1">
          <mxGeometry x="60" y="-730" width="190" height="260" as="geometry" />
        </mxCell>
        <mxCell id="YNYwelC9UPpxZu0wi-aZ-75" value="- vacunas: HashSet&amp;lt;Vacuna&amp;gt;&lt;br style=&quot;border-color: var(--border-color);&quot;&gt;- fechaNacimiento: LocalDate&lt;br style=&quot;border-color: var(--border-color);&quot;&gt;- descripcion: String&lt;br style=&quot;border-color: var(--border-color);&quot;&gt;- especie: String&lt;br style=&quot;border-color: var(--border-color);&quot;&gt;- genero: String&lt;br style=&quot;border-color: var(--border-color);&quot;&gt;- nombre: String&lt;br style=&quot;border-color: var(--border-color);&quot;&gt;- raza: String" style="text;strokeColor=none;fillColor=none;align=left;verticalAlign=top;spacingLeft=4;spacingRight=4;overflow=hidden;rotatable=0;points=[[0,0.5],[1,0.5]];portConstraint=eastwest;whiteSpace=wrap;html=1;" parent="YNYwelC9UPpxZu0wi-aZ-74" vertex="1">
          <mxGeometry y="26" width="190" height="144" as="geometry" />
        </mxCell>
        <mxCell id="YNYwelC9UPpxZu0wi-aZ-76" value="" style="line;strokeWidth=1;fillColor=none;align=left;verticalAlign=middle;spacingTop=-1;spacingLeft=3;spacingRight=3;rotatable=0;labelPosition=right;points=[];portConstraint=eastwest;strokeColor=inherit;" parent="YNYwelC9UPpxZu0wi-aZ-74" vertex="1">
          <mxGeometry y="170" width="190" height="8" as="geometry" />
        </mxCell>
        <mxCell id="YNYwelC9UPpxZu0wi-aZ-77" value="+ verificarVacuna(): bool&lt;br&gt;+ calcularEdad(): int&lt;br&gt;+ esIgual(LocalDate, String, String, String, String, String): boolean" style="text;strokeColor=none;fillColor=none;align=left;verticalAlign=top;spacingLeft=4;spacingRight=4;overflow=hidden;rotatable=0;points=[[0,0.5],[1,0.5]];portConstraint=eastwest;whiteSpace=wrap;html=1;" parent="YNYwelC9UPpxZu0wi-aZ-74" vertex="1">
          <mxGeometry y="178" width="190" height="82" as="geometry" />
        </mxCell>
        <mxCell id="YNYwelC9UPpxZu0wi-aZ-80" value="Persona" style="swimlane;fontStyle=1;align=center;verticalAlign=top;childLayout=stackLayout;horizontal=1;startSize=26;horizontalStack=0;resizeParent=1;resizeParentMax=0;resizeLast=0;collapsible=1;marginBottom=0;whiteSpace=wrap;html=1;" parent="1" vertex="1">
          <mxGeometry x="580" y="-600" width="160" height="260" as="geometry" />
        </mxCell>
        <mxCell id="YNYwelC9UPpxZu0wi-aZ-81" value="- experiencia: bool&lt;br style=&quot;border-color: var(--border-color);&quot;&gt;- edad: int&lt;br style=&quot;border-color: var(--border-color);&quot;&gt;- fechaNacimiento: LocalDate&lt;br style=&quot;border-color: var(--border-color);&quot;&gt;- correo: String&lt;br style=&quot;border-color: var(--border-color);&quot;&gt;- direccion: String&lt;br style=&quot;border-color: var(--border-color);&quot;&gt;- nombre: String&lt;br style=&quot;border-color: var(--border-color);&quot;&gt;- ocupacion: String&lt;br style=&quot;border-color: var(--border-color);&quot;&gt;- telefono: String" style="text;strokeColor=none;fillColor=none;align=left;verticalAlign=top;spacingLeft=4;spacingRight=4;overflow=hidden;rotatable=0;points=[[0,0.5],[1,0.5]];portConstraint=eastwest;whiteSpace=wrap;html=1;" parent="YNYwelC9UPpxZu0wi-aZ-80" vertex="1">
          <mxGeometry y="26" width="160" height="144" as="geometry" />
        </mxCell>
        <mxCell id="YNYwelC9UPpxZu0wi-aZ-82" value="" style="line;strokeWidth=1;fillColor=none;align=left;verticalAlign=middle;spacingTop=-1;spacingLeft=3;spacingRight=3;rotatable=0;labelPosition=right;points=[];portConstraint=eastwest;strokeColor=inherit;" parent="YNYwelC9UPpxZu0wi-aZ-80" vertex="1">
          <mxGeometry y="170" width="160" height="8" as="geometry" />
        </mxCell>
        <mxCell id="YNYwelC9UPpxZu0wi-aZ-83" value="+ mayorDeEdad(): bool&lt;br&gt;+ esIgual(boolean ,LocalDate ,String ,String ,String ,String ,String): boolean" style="text;strokeColor=none;fillColor=none;align=left;verticalAlign=top;spacingLeft=4;spacingRight=4;overflow=hidden;rotatable=0;points=[[0,0.5],[1,0.5]];portConstraint=eastwest;whiteSpace=wrap;html=1;" parent="YNYwelC9UPpxZu0wi-aZ-80" vertex="1">
          <mxGeometry y="178" width="160" height="82" as="geometry" />
        </mxCell>
        <mxCell id="YNYwelC9UPpxZu0wi-aZ-90" value="&amp;lt;&amp;lt;enum&amp;gt;&amp;gt;" style="text;html=1;align=center;verticalAlign=middle;resizable=0;points=[];autosize=1;strokeColor=none;fillColor=none;" parent="1" vertex="1">
          <mxGeometry x="580" y="-330" width="80" height="30" as="geometry" />
        </mxCell>
        <mxCell id="thLjIG574STWoP4mwLSq-6" value="Solicitud" style="swimlane;fontStyle=1;align=center;verticalAlign=top;childLayout=stackLayout;horizontal=1;startSize=26;horizontalStack=0;resizeParent=1;resizeParentMax=0;resizeLast=0;collapsible=1;marginBottom=0;whiteSpace=wrap;html=1;" parent="1" vertex="1">
          <mxGeometry x="274" y="-300" width="260" height="118" as="geometry" />
        </mxCell>
        <mxCell id="thLjIG574STWoP4mwLSq-7" value="-solicitante: Persona&lt;br style=&quot;border-color: var(--border-color);&quot;&gt;-animal: Animal&lt;br style=&quot;border-color: var(--border-color);&quot;&gt;-fechaEnvio: LocalDate&lt;br style=&quot;border-color: var(--border-color);&quot;&gt;-estado: Estado&lt;br style=&quot;border-color: var(--border-color);&quot;&gt;-fechaAdopcion: LocalDate" style="text;strokeColor=none;fillColor=none;align=left;verticalAlign=top;spacingLeft=4;spacingRight=4;overflow=hidden;rotatable=0;points=[[0,0.5],[1,0.5]];portConstraint=eastwest;whiteSpace=wrap;html=1;" parent="thLjIG574STWoP4mwLSq-6" vertex="1">
          <mxGeometry y="26" width="260" height="84" as="geometry" />
        </mxCell>
        <mxCell id="thLjIG574STWoP4mwLSq-8" value="" style="line;strokeWidth=1;fillColor=none;align=left;verticalAlign=middle;spacingTop=-1;spacingLeft=3;spacingRight=3;rotatable=0;labelPosition=right;points=[];portConstraint=eastwest;strokeColor=inherit;" parent="thLjIG574STWoP4mwLSq-6" vertex="1">
          <mxGeometry y="110" width="260" height="8" as="geometry" />
        </mxCell>
        <mxCell id="thLjIG574STWoP4mwLSq-17" value="AccesoDB" style="swimlane;fontStyle=1;align=center;verticalAlign=top;childLayout=stackLayout;horizontal=1;startSize=26;horizontalStack=0;resizeParent=1;resizeParentMax=0;resizeLast=0;collapsible=1;marginBottom=0;whiteSpace=wrap;html=1;" parent="1" vertex="1">
          <mxGeometry x="800" y="-730" width="220" height="420" as="geometry" />
        </mxCell>
        <mxCell id="thLjIG574STWoP4mwLSq-18" value="- conexion: Connection&lt;br style=&quot;border-color: var(--border-color);&quot;&gt;- nombreTabla: List&amp;lt;String&amp;gt;&lt;br style=&quot;border-color: var(--border-color);&quot;&gt;- nombreBaseDeDatos: String" style="text;strokeColor=none;fillColor=none;align=left;verticalAlign=top;spacingLeft=4;spacingRight=4;overflow=hidden;rotatable=0;points=[[0,0.5],[1,0.5]];portConstraint=eastwest;whiteSpace=wrap;html=1;" parent="thLjIG574STWoP4mwLSq-17" vertex="1">
          <mxGeometry y="26" width="220" height="74" as="geometry" />
        </mxCell>
        <mxCell id="thLjIG574STWoP4mwLSq-19" value="" style="line;strokeWidth=1;fillColor=none;align=left;verticalAlign=middle;spacingTop=-1;spacingLeft=3;spacingRight=3;rotatable=0;labelPosition=right;points=[];portConstraint=eastwest;strokeColor=inherit;" parent="thLjIG574STWoP4mwLSq-17" vertex="1">
          <mxGeometry y="100" width="220" height="8" as="geometry" />
        </mxCell>
        <mxCell id="thLjIG574STWoP4mwLSq-20" value="+ connectar(String, String): void&lt;br&gt;+ obtenerEstadoPorId(int): Estado&lt;br&gt;+ obtenerValoresVacuna(String): HashSet&amp;lt;Object&amp;gt;&lt;br&gt;+&amp;nbsp;obtenerValoresAnimal(): HashMap&amp;lt;Interger, HashMap&amp;lt;String, Object&amp;gt;&amp;gt;&lt;br&gt;+&amp;nbsp;obtenerValoresPersona(): HashMap&amp;lt;Interger, HashMap&amp;lt;String, Object&amp;gt;&amp;gt;&lt;br&gt;+&amp;nbsp;obtenerAnimalPorIdEnJava(int): HashMap&amp;lt;Interger, HashMap&amp;lt;String, Object&amp;gt;&amp;gt;&lt;br&gt;+&amp;nbsp;obtenerPersonaPorIdEnJava(int): HashMap&amp;lt;Interger, HashMap&amp;lt;String, Object&amp;gt;&amp;gt;&lt;br&gt;+&amp;nbsp;obtenerValoresSolicitud(): HashMap&amp;lt;ArrayList&amp;lt;Interger&amp;gt;, HashMap&amp;lt;String, Object&amp;gt;&lt;br&gt;+&amp;nbsp;procedureA(): HashMap&amp;lt;Interger, HashMap&amp;lt;String, Object&amp;gt;&amp;gt;" style="text;strokeColor=none;fillColor=none;align=left;verticalAlign=top;spacingLeft=4;spacingRight=4;overflow=hidden;rotatable=0;points=[[0,0.5],[1,0.5]];portConstraint=eastwest;whiteSpace=wrap;html=1;" parent="thLjIG574STWoP4mwLSq-17" vertex="1">
          <mxGeometry y="108" width="220" height="312" as="geometry" />
        </mxCell>
        <mxCell id="thLjIG574STWoP4mwLSq-21" style="edgeStyle=orthogonalEdgeStyle;rounded=0;orthogonalLoop=1;jettySize=auto;html=1;exitX=1;exitY=0.056;exitDx=0;exitDy=0;exitPerimeter=0;" parent="1" source="YNYwelC9UPpxZu0wi-aZ-40" edge="1">
          <mxGeometry relative="1" as="geometry">
            <mxPoint x="800" y="-701" as="targetPoint" />
          </mxGeometry>
        </mxCell>
        <mxCell id="thLjIG574STWoP4mwLSq-22" style="edgeStyle=orthogonalEdgeStyle;rounded=0;orthogonalLoop=1;jettySize=auto;html=1;entryX=0;entryY=0.5;entryDx=0;entryDy=0;" parent="1" source="thLjIG574STWoP4mwLSq-7" edge="1">
          <mxGeometry relative="1" as="geometry">
            <mxPoint x="580" y="-261" as="targetPoint" />
            <mxPoint x="539" y="-331" as="sourcePoint" />
          </mxGeometry>
        </mxCell>
        <mxCell id="thLjIG574STWoP4mwLSq-23" value="Estado" style="swimlane;fontStyle=1;align=center;verticalAlign=top;childLayout=stackLayout;horizontal=1;startSize=26;horizontalStack=0;resizeParent=1;resizeParentMax=0;resizeLast=0;collapsible=1;marginBottom=0;whiteSpace=wrap;html=1;" parent="1" vertex="1">
          <mxGeometry x="580" y="-300" width="160" height="100" as="geometry" />
        </mxCell>
        <mxCell id="thLjIG574STWoP4mwLSq-24" value="- estado: String" style="text;strokeColor=none;fillColor=none;align=left;verticalAlign=top;spacingLeft=4;spacingRight=4;overflow=hidden;rotatable=0;points=[[0,0.5],[1,0.5]];portConstraint=eastwest;whiteSpace=wrap;html=1;" parent="thLjIG574STWoP4mwLSq-23" vertex="1">
          <mxGeometry y="26" width="160" height="26" as="geometry" />
        </mxCell>
        <mxCell id="thLjIG574STWoP4mwLSq-25" value="" style="line;strokeWidth=1;fillColor=none;align=left;verticalAlign=middle;spacingTop=-1;spacingLeft=3;spacingRight=3;rotatable=0;labelPosition=right;points=[];portConstraint=eastwest;strokeColor=inherit;" parent="thLjIG574STWoP4mwLSq-23" vertex="1">
          <mxGeometry y="52" width="160" height="8" as="geometry" />
        </mxCell>
        <mxCell id="thLjIG574STWoP4mwLSq-26" value="PENDIENTE, APROBADA, RECHAZADA" style="text;strokeColor=none;fillColor=none;align=left;verticalAlign=top;spacingLeft=4;spacingRight=4;overflow=hidden;rotatable=0;points=[[0,0.5],[1,0.5]];portConstraint=eastwest;whiteSpace=wrap;html=1;" parent="thLjIG574STWoP4mwLSq-23" vertex="1">
          <mxGeometry y="60" width="160" height="40" as="geometry" />
        </mxCell>
      </root>
    </mxGraphModel>
  </diagram>
</mxfile>
